<?xml version="1.0" encoding="UTF-8"?>
<svg width="217px" height="217px" viewBox="0 0 217 217" version="1.1" xmlns="http://www.w3.org/2000/svg" xmlns:xlink="http://www.w3.org/1999/xlink">
    <!-- Generator: Sketch 49.1 (51147) - http://www.bohemiancoding.com/sketch -->
    <title>error</title>
    <desc>Created with Sketch.</desc>
    <defs>
        <path d="M90.501,0.1152 C85.819,0.1152 81.138,1.8992 77.566,5.4692 C76.27,6.7632 75.205,8.2132 74.398,9.7472 L74.398,9.7362 L3.666,132.3122 L3.666,132.3382 C2.549,133.9772 1.662,135.8282 1.129,137.8632 C-1.488,147.6282 4.302,157.6662 14.06,160.2682 C15.625,160.6892 17.208,160.8852 18.776,160.8852 C18.965,160.8852 19.154,160.8822 19.343,160.8762 L160.87,160.8522 L160.87,160.8372 C161.296,160.8662 161.724,160.8812 162.148,160.8812 C168.487,160.8812 174.639,157.6262 178.048,151.7552 C181.522,145.7142 181.192,138.5212 177.767,132.9952 L106.985,10.4472 L106.961,10.4602 C106.074,8.6582 104.93,6.9672 103.435,5.4692 C99.864,1.8992 95.183,0.1152 90.501,0.1152 M12.666,132.3122 L12.671,132.3122 L12.666,132.3122 M90.501,9.1152 C92.984,9.1152 95.318,10.0812 97.063,11.8242 C97.778,12.5422 98.375,13.3962 98.887,14.4342 C99.077,14.8222 99.295,15.1932 99.537,15.5462 L169.974,137.4962 C170.021,137.5772 170.068,137.6572 170.117,137.7362 C171.912,140.6332 171.962,144.2852 170.265,147.2362 C168.576,150.1442 165.542,151.8812 162.148,151.8812 C161.931,151.8812 161.71,151.8742 161.492,151.8582 C161.286,151.8442 161.08,151.8372 160.874,151.8372 C160.7,151.8372 160.526,151.8422 160.355,151.8522 L19.342,151.8762 C19.253,151.8762 19.163,151.8782 19.074,151.8802 C18.975,151.8842 18.876,151.8852 18.776,151.8852 C17.957,151.8852 17.155,151.7812 16.379,151.5722 C13.99,150.9352 11.992,149.4032 10.752,147.2602 C9.508,145.1062 9.178,142.5972 9.822,140.1932 C9.826,140.1772 9.831,140.1602 9.835,140.1432 C10.083,139.1992 10.51,138.2782 11.104,137.4072 C11.316,137.0942 11.509,136.7682 11.68,136.4322 L82.027,14.5232 C82.147,14.3322 82.26,14.1362 82.365,13.9342 C82.762,13.1812 83.286,12.4752 83.928,11.8352 C85.683,10.0812 88.018,9.1152 90.501,9.1152 Z M90.5,140.1279 C95.471,140.1279 99.5,136.0989 99.5,131.1279 C99.5,126.1569 95.471,122.1279 90.5,122.1279 C85.529,122.1279 81.5,126.1569 81.5,131.1279 C81.5,136.0989 85.529,140.1279 90.5,140.1279 Z M99.5,103.999 L99.5,49.872 C99.5,44.901 95.471,40.872 90.5,40.872 C85.529,40.872 81.5,44.901 81.5,49.872 L81.5,103.999 C81.5,108.97 85.529,112.999 90.5,112.999 C95.471,112.999 99.5,108.97 99.5,103.999 Z" id="path-1"></path>
    </defs>
    <g id="Page-1" stroke="none" stroke-width="1" fill="none" fill-rule="evenodd">
        <g id="Desktop-HD" transform="translate(-488.000000, -31.000000)">
            <g id="error" transform="translate(488.000000, 31.000000)">
                <g id="Fill-/-Color-/-Red" transform="translate(18.000000, 28.000000)">
                    <mask id="mask-2" fill="white">
                        <use xlink:href="#path-1"></use>
                    </mask>
                    <use id="Mask" fill="#d8534f" xlink:href="#path-1"></use>
                </g>
            </g>
        </g>
    </g>
</svg>