<?xml version="1.0" encoding="UTF-8"?>
<svg width="217px" height="217px" viewBox="0 0 217 217" version="1.1" xmlns="http://www.w3.org/2000/svg" xmlns:xlink="http://www.w3.org/1999/xlink">
    <!-- Generator: Sketch 49.1 (51147) - http://www.bohemiancoding.com/sketch -->
    <title>eye_off</title>
    <desc>Created with Sketch.</desc>
    <defs></defs>
    <g id="Page-1" stroke="none" stroke-width="1" fill="none" fill-rule="evenodd">
        <g id="Desktop-HD" transform="translate(-257.000000, -31.000000)" fill="#231F20">
            <g id="eye_off" transform="translate(257.000000, 31.000000)">
                <path d="M173.5,37.5 C175.104,37.5 176.61,38.125 177.742,39.258 C178.876,40.391 179.5,41.896 179.5,43.5 C179.5,45.104 178.876,46.609 177.742,47.742 L47.743,177.741 C46.61,178.875 45.104,179.5 43.5,179.5 C41.896,179.5 40.39,178.875 39.258,177.742 C38.124,176.609 37.5,175.104 37.5,173.5 C37.5,171.896 38.124,170.391 39.258,169.258 L169.257,39.259 C170.39,38.125 171.896,37.5 173.5,37.5 Z M108.5,132.2256 C107.265,132.2256 106.045,132.1306 104.848,131.9516 L131.951,104.8466 C132.132,106.0436 132.227,107.2636 132.227,108.4996 C132.227,114.8886 129.772,120.8606 125.316,125.3166 C120.861,129.7716 114.889,132.2256 108.5,132.2256 Z M108.5,84.7744 C109.736,84.7744 110.956,84.8694 112.152,85.0484 L85.05,112.1524 C84.869,110.9554 84.775,109.7364 84.775,108.5004 C84.775,102.1114 87.229,96.1394 91.685,91.6834 C96.14,87.2284 102.112,84.7744 108.5,84.7744 Z M197.8984,107.498 L198.5004,108.5 L197.8984,109.502 C189.4574,123.582 176.4454,136.302 161.2614,145.318 C144.8404,155.069 126.5964,160.224 108.5004,160.224 C99.1464,160.224 89.7654,158.842 80.6224,156.176 L90.7034,146.095 C96.1024,148.661 102.1354,150.102 108.5004,150.102 C131.4404,150.102 150.1034,131.439 150.1034,108.5 C150.1034,102.135 148.6624,96.102 146.0954,90.703 L153.5584,83.24 C157.8774,90.867 160.2234,99.541 160.2234,108.5 C160.2234,120.146 156.2734,131.318 149.1544,140.324 C169.8594,129.8 182.4724,113.929 186.3544,108.533 C176.4644,95.416 165.7914,86.582 156.1624,80.637 L163.6544,73.144 C177.8054,82.051 189.9064,94.166 197.8984,107.498 Z M30.6221,108.5 C34.0191,113.227 44.2371,126.156 60.8241,136.377 L53.3501,143.853 C39.2111,134.948 27.1081,122.833 19.1031,109.504 L18.5001,108.5 L19.1021,107.496 C27.5411,93.445 40.5211,80.745 55.6531,71.734 C72.0861,61.949 90.3591,56.776 108.5001,56.776 C117.8511,56.776 127.2321,58.158 136.3781,60.824 L126.2971,70.904 C120.8981,68.339 114.8651,66.897 108.5001,66.897 C85.5601,66.897 66.8981,85.561 66.8981,108.5 C66.8981,114.865 68.3401,120.897 70.9051,126.297 L63.4421,133.76 C59.1231,126.133 56.7771,117.459 56.7771,108.5 C56.7771,96.854 60.7281,85.682 67.8471,76.676 C47.1001,87.222 34.4761,103.139 30.6221,108.5 Z" id="Combined-Shape"></path>
            </g>
        </g>
    </g>
</svg>