<?xml version="1.0" encoding="UTF-8"?>
<svg width="217px" height="217px" viewBox="0 0 217 217" version="1.1" xmlns="http://www.w3.org/2000/svg" xmlns:xlink="http://www.w3.org/1999/xlink">
    <!-- Generator: Sketch 49.1 (51147) - http://www.bohemiancoding.com/sketch -->
    <title>eye_on</title>
    <desc>Created with Sketch.</desc>
    <defs></defs>
    <g id="Page-1" stroke="none" stroke-width="1" fill="none" fill-rule="evenodd">
        <g id="Desktop-HD" transform="translate(-26.000000, -31.000000)" fill="#000000">
            <g id="eye_on" transform="translate(26.000000, 31.000000)">
                <path d="M197.8996,107.498 L198.4996,108.5 L197.8996,109.502 C189.4566,123.582 176.4456,136.302 161.2616,145.318 C144.8406,155.069 126.5966,160.224 108.5006,160.224 C90.2866,160.224 71.9636,155.024 55.5116,145.189 C40.4446,136.183 27.5146,123.509 19.1026,109.504 L18.4996,108.5 L19.1026,107.496 C27.5406,93.446 40.5216,80.745 55.6536,71.734 C72.0856,61.948 90.3596,56.776 108.5006,56.776 C126.6836,56.776 144.9876,61.962 161.4316,71.772 C176.5386,80.784 189.4906,93.472 197.8996,107.498 Z M160.2236,108.5 C160.2236,120.146 156.2736,131.318 149.1546,140.324 C169.8586,129.8 182.4716,113.929 186.3546,108.534 C173.9946,92.14 160.4056,82.424 149.1676,76.692 C156.2786,85.695 160.2236,96.861 160.2236,108.5 Z M108.5006,66.897 C85.5606,66.897 66.8976,85.561 66.8976,108.5 C66.8976,131.439 85.5606,150.103 108.5006,150.103 C131.4406,150.103 150.1036,131.439 150.1036,108.5 C150.1036,85.561 131.4406,66.897 108.5006,66.897 Z M108.501,132.2255 C102.112,132.2255 96.14,129.7715 91.685,125.3165 C87.229,120.8605 84.775,114.8885 84.775,108.4995 C84.775,102.1115 87.229,96.1395 91.685,91.6835 C96.14,87.2285 102.112,84.7745 108.501,84.7745 C114.889,84.7745 120.861,87.2285 125.316,91.6835 C129.772,96.1395 132.227,102.1115 132.227,108.4995 C132.227,114.8885 129.772,120.8605 125.316,125.3165 C120.861,129.7715 114.889,132.2255 108.501,132.2255 Z M108.501,94.8955 C100.872,94.8955 94.896,100.8715 94.896,108.4995 C94.896,116.1285 100.872,122.1045 108.501,122.1045 C116.129,122.1045 122.105,116.1285 122.105,108.4995 C122.105,100.8715 116.129,94.8955 108.501,94.8955 Z M67.8466,140.324 C60.7276,131.318 56.7776,120.146 56.7776,108.5 C56.7776,96.854 60.7276,85.682 67.8466,76.676 C47.0986,87.222 34.4766,103.138 30.6216,108.5 C34.4766,113.862 47.0986,129.778 67.8466,140.324 Z" id="Combined-Shape"></path>
            </g>
        </g>
    </g>
</svg>