<?xml version="1.0" encoding="UTF-8"?>
<svg width="32px" height="32px" viewBox="0 0 32 32" version="1.1" xmlns="http://www.w3.org/2000/svg" xmlns:xlink="http://www.w3.org/1999/xlink">
    <!-- Generator: Sketch 49.1 (51147) - http://www.bohemiancoding.com/sketch -->
    <title>facebook</title>
    <desc>Created with Sketch.</desc>
    <defs></defs>
    <g id="Page-1" stroke="none" stroke-width="1" fill="none" fill-rule="evenodd">
        <g id="Desktop-HD" transform="translate(-26.000000, -272.000000)" fill="#FFFFFF">
            <g id="facebook" transform="translate(26.000000, 272.000000)">
                <path d="M22.4615385,7.98076923 L20.1971154,7.98076923 C19.3701882,7.98076923 18.8125014,8.15384442 18.5240385,8.5 C18.2355755,8.84615558 18.0913462,9.36538115 18.0913462,10.0576923 L18.0913462,12.7836538 L22.3173077,12.7836538 L21.7548077,17.0528846 L18.0913462,17.0528846 L18.0913462,28 L13.6778846,28 L13.6778846,17.0528846 L10,17.0528846 L10,12.7836538 L13.6778846,12.7836538 L13.6778846,9.63942308 C13.6778846,7.8509526 14.1778796,6.46394724 15.1778846,5.47836538 C16.1778896,4.49278353 17.5096071,4 19.1730769,4 C20.5865455,4 21.6826884,4.05769173 22.4615385,4.17307692 L22.4615385,7.98076923 Z" id="-2"></path>
            </g>
        </g>
    </g>
</svg>