<?xml version="1.0" encoding="UTF-8"?>
<svg width="32px" height="32px" viewBox="0 0 32 32" version="1.1" xmlns="http://www.w3.org/2000/svg" xmlns:xlink="http://www.w3.org/1999/xlink">
    <!-- Generator: Sketch 49.1 (51147) - http://www.bohemiancoding.com/sketch -->
    <title>flag_HK</title>
    <desc>Created with Sketch.</desc>
    <defs></defs>
    <g id="Page-1" stroke="none" stroke-width="1" fill="none" fill-rule="evenodd">
        <g id="Desktop-HD" transform="translate(-497.000000, -272.000000)">
            <g id="Stacked-Group" transform="translate(257.000000, 272.000000)">
                <g id="HK" transform="translate(240.000000, 0.000000)">
                    <g id="Group-7" transform="translate(3.000000, 7.000000)">
                        <g id="Page-1">
                            <polygon id="Fill-1" fill="#EC1B2E" points="0 17.963 26 17.963 26 0.037 0 0.037"></polygon>
                            <g id="Group-32" transform="translate(7.000000, 3.000000)">
                                <path d="M5.7178,6.1328 C4.3078,5.6078 3.5918,4.0388 4.1168,2.6288 C4.5538,1.4568 5.7338,0.7328 6.9768,0.8738 C6.4998,1.0858 6.2848,1.6438 6.4968,2.1208 C6.5298,2.1948 6.5718,2.2628 6.6208,2.3258 C6.9328,2.9868 6.6888,3.7778 6.0578,4.1478 C5.4558,4.3658 5.1448,5.0308 5.3638,5.6328 C5.4338,5.8278 5.5558,6.0008 5.7168,6.1328 L5.7178,6.1328 Z" id="Fill-2" fill="#FFFFFF"></path>
                                <path d="M5.7178,6.1338 C4.7798,7.3098 3.0648,7.5008 1.8898,6.5628 C0.9138,5.7828 0.5928,4.4408 1.1108,3.3038 C1.1578,3.8188 1.6128,4.1968 2.1268,4.1508 C2.2158,4.1418 2.3018,4.1218 2.3848,4.0888 C3.1108,4.0078 3.7838,4.4788 3.9548,5.1888 C3.9638,5.8218 4.4838,6.3268 5.1158,6.3178 C5.3298,6.3148 5.5378,6.2528 5.7178,6.1368 L5.7178,6.1338 Z" id="Fill-4" fill="#FFFFFF"></path>
                                <path d="M5.7192,6.1328 C6.5512,7.3878 6.2072,9.0788 4.9522,9.9108 C3.9062,10.6048 2.5232,10.4938 1.6002,9.6438 C2.1052,9.7578 2.6062,9.4408 2.7192,8.9348 C2.7382,8.8518 2.7452,8.7668 2.7412,8.6808 C2.8772,7.9628 3.5392,7.4668 4.2672,7.5398 C4.8852,7.7188 5.5312,7.3618 5.7092,6.7438 C5.7672,6.5448 5.7702,6.3338 5.7192,6.1328" id="Fill-6" fill="#FFFFFF"></path>
                                <path d="M5.7192,6.1328 C7.1642,5.7268 8.6662,6.5688 9.0722,8.0138 C9.4142,9.2258 8.8782,10.5138 7.7782,11.1258 C8.0422,10.6848 7.8972,10.1128 7.4562,9.8498 C7.3812,9.8048 7.3002,9.7708 7.2152,9.7478 C6.5722,9.3978 6.3022,8.6128 6.5932,7.9418 C6.9602,7.4278 6.8422,6.7138 6.3292,6.3458 C6.1502,6.2178 5.9382,6.1448 5.7192,6.1338 L5.7192,6.1328 Z" id="Fill-8" fill="#FFFFFF"></path>
                                <path d="M5.7192,6.1338 C5.7832,4.6308 7.0542,3.4648 8.5572,3.5298 C9.8112,3.5838 10.8672,4.4878 11.1122,5.7188 C10.7742,5.3348 10.1892,5.2958 9.8052,5.6338 C9.7372,5.6928 9.6782,5.7618 9.6312,5.8378 C9.0982,6.3428 8.2682,6.3558 7.7192,5.8678 C7.3432,5.3568 6.6222,5.2468 6.1112,5.6238 C5.9342,5.7538 5.7992,5.9308 5.7202,6.1348 L5.7192,6.1338 Z" id="Fill-10" fill="#FFFFFF"></path>
                                <polygon id="Fill-12" fill="#EC1B2E" points="5.541 3.1548 5.363 3.4358 5.304 3.1098 4.978 3.0208 5.278 2.8578 5.263 2.5318 5.5 2.7538 5.811 2.6358 5.663 2.9358 5.885 3.2028"></polygon>
                                <polygon id="Fill-14" fill="#EC1B2E" points="2.8291 5.3779 3.0511 5.6299 2.7101 5.5999 2.5321 5.8669 2.4731 5.5409 2.1481 5.4669 2.4481 5.3039 2.4181 4.9779 2.6701 5.1999 2.9811 5.0809"></polygon>
                                <polygon id="Fill-16" fill="#EC1B2E" points="4.1001 8.6367 4.4111 8.5187 4.2781 8.8297 4.4851 9.0817 4.1591 9.0377 3.9811 9.3197 3.9071 8.9927 3.5961 8.9047 3.8771 8.7557 3.8621 8.4147"></polygon>
                                <polygon id="Fill-18" fill="#EC1B2E" points="7.5996 8.4453 7.5846 8.1033 7.8366 8.3413 8.1366 8.2083 8.0036 8.5183 8.2106 8.7703 7.8846 8.7263 7.7066 9.0073 7.6486 8.6813 7.3226 8.6083"></polygon>
                                <polygon id="Fill-20" fill="#EC1B2E" points="8.5039 5.0518 8.1779 4.9628 8.4589 4.7998 8.4439 4.4738 8.6809 4.6958 8.9919 4.5768 8.8589 4.8768 9.0659 5.1438 8.7399 5.0998 8.5619 5.3808"></polygon>
                                <path d="M5.7329,6.104 C5.3159,5.868 5.0149,5.47 4.9029,5.004 C4.7559,4.441 4.8409,3.844 5.1399,3.345 L5.0809,3.301 C4.7559,3.812 4.6649,4.437 4.8289,5.02 C4.9479,5.501 5.2579,5.914 5.6879,6.161 L5.7319,6.102 L5.7329,6.104 Z" id="Fill-22" fill="#EC1B2E"></path>
                                <path d="M5.689,6.1069 C5.335,6.4259 4.865,6.5859 4.389,6.5509 C3.808,6.5239 3.264,6.2549 2.889,5.8099 L2.83,5.8539 C3.219,6.3159 3.783,6.5949 4.386,6.6239 C4.887,6.6639 5.381,6.4919 5.749,6.1499 L5.689,6.1069 Z" id="Fill-24" fill="#EC1B2E"></path>
                                <path d="M5.689,6.1479 C5.885,6.5849 5.896,7.0809 5.719,7.5259 C5.51,8.0689 5.087,8.5039 4.549,8.7259 L4.579,8.7999 C5.139,8.5709 5.579,8.1209 5.794,7.5559 C5.985,7.0939 5.975,6.5729 5.764,6.1189 L5.69,6.1489 L5.689,6.1479 Z" id="Fill-26" fill="#EC1B2E"></path>
                                <path d="M5.7192,6.1782 C6.1952,6.1242 6.6722,6.2692 7.0382,6.5782 C7.4942,6.9392 7.7742,7.4782 7.8072,8.0582 L7.8822,8.0582 C7.8322,7.4592 7.5442,6.9042 7.0822,6.5182 C6.7032,6.1892 6.2012,6.0382 5.7042,6.1032 L5.7192,6.1772 L5.7192,6.1782 Z" id="Fill-28" fill="#EC1B2E"></path>
                                <path d="M5.7632,6.1299 C5.8592,5.6629 6.1422,5.2549 6.5482,5.0039 C7.0302,4.6779 7.6292,4.5759 8.1922,4.7229 L8.2072,4.6489 C7.6172,4.5019 6.9932,4.6109 6.4882,4.9489 C6.0682,5.2119 5.7732,5.6339 5.6732,6.1189 L5.7622,6.1339 L5.7632,6.1299 Z" id="Fill-30" fill="#EC1B2E"></path>
                            </g>
                        </g>
                        <polygon id="Stroke-1" stroke="#666666" stroke-width="0.5" points="0 18 26 18 26 0 0 0"></polygon>
                    </g>
                </g>
            </g>
        </g>
    </g>
</svg>