<?xml version="1.0" encoding="UTF-8"?>
<svg width="32px" height="32px" viewBox="0 0 32 32" version="1.1" xmlns="http://www.w3.org/2000/svg" xmlns:xlink="http://www.w3.org/1999/xlink">
    <!-- Generator: Sketch 49.1 (51147) - http://www.bohemiancoding.com/sketch -->
    <title>flag_TW</title>
    <desc>Created with Sketch.</desc>
    <defs></defs>
    <g id="Page-1" stroke="none" stroke-width="1" fill="none" fill-rule="evenodd">
        <g id="Desktop-HD" transform="translate(-353.000000, -272.000000)">
            <g id="Stacked-Group" transform="translate(257.000000, 272.000000)">
                <g id="TW" transform="translate(96.000000, 0.000000)">
                    <g id="Page-1" transform="translate(3.000000, 7.000000)">
                        <polygon id="Fill-2" fill="#ED1E24" points="0 18 26 18 26 0 0 0"></polygon>
                        <polygon id="Fill-3" fill="#2B2F84" points="0 9 13 9 13 0 0 0"></polygon>
                        <path d="M6.333,2.669 C7.253,2.669 7.998,3.415 7.998,4.334 C7.998,5.253 7.253,5.999 6.333,5.999 C5.414,5.999 4.668,5.253 4.668,4.334 C4.668,3.415 5.414,2.669 6.333,2.669 Z M6.7241,2.459 C6.4661,2.406 6.2001,2.408 5.9421,2.464 L6.3361,1 L6.7241,2.459 Z M5.7344,2.5142 C5.4844,2.5972 5.2534,2.7322 5.0584,2.9092 L4.6654,1.4452 L5.7344,2.5142 Z M4.9053,3.0582 L4.9043,3.0582 C4.7293,3.2542 4.5963,3.4852 4.5153,3.7362 L3.4463,2.6672 L4.9053,3.0582 Z M4.459,3.9429 C4.407,4.2019 4.409,4.4679 4.465,4.7259 L3,4.3349 L4.459,3.9429 Z M4.5132,4.9341 L4.5102,4.9341 C4.5952,5.1841 4.7312,5.4141 4.9102,5.6091 L3.4442,6.0031 L4.5132,4.9341 Z M5.0572,5.7608 C5.2542,5.9378 5.4852,6.0708 5.7362,6.1528 L4.6672,7.2218 L5.0572,5.7608 Z M5.9434,6.2061 C6.2014,6.2601 6.4674,6.2601 6.7254,6.2061 L6.3364,7.6681 L5.9434,6.2061 Z M6.9322,6.1539 C7.1822,6.0709 7.4122,5.9379 7.6082,5.7609 L8.0012,7.2229 L6.9322,6.1539 Z M7.7613,5.6099 C7.9363,5.4139 8.0693,5.1829 8.1503,4.9319 L9.2203,6.0009 L7.7613,5.6099 Z M8.2071,4.7252 C8.2621,4.4672 8.2621,4.2002 8.2071,3.9422 L9.6671,4.3352 L8.2071,4.7252 Z M8.1533,3.7339 C8.0703,3.4839 7.9373,3.2549 7.7613,3.0589 L9.2223,2.6649 L8.1533,3.7339 Z M7.6104,2.9102 C7.4134,2.7352 7.1824,2.6022 6.9324,2.5212 L8.0014,1.4512 L7.6104,2.9102 Z" id="Combined-Shape" fill="#FFFFFF"></path>
                        <polygon id="Stroke-30" stroke="#666666" stroke-width="0.5" points="0 18 26 18 26 0 0 0"></polygon>
                    </g>
                </g>
            </g>
        </g>
    </g>
</svg>