<?xml version="1.0" encoding="UTF-8"?>
<svg width="32px" height="32px" viewBox="0 0 32 32" version="1.1" xmlns="http://www.w3.org/2000/svg" xmlns:xlink="http://www.w3.org/1999/xlink">
    <!-- Generator: Sketch 49.1 (51147) - http://www.bohemiancoding.com/sketch -->
    <title>flag_PH</title>
    <desc>Created with Sketch.</desc>
    <defs></defs>
    <g id="Page-1" stroke="none" stroke-width="1" fill="none" fill-rule="evenodd">
        <g id="Desktop-HD" transform="translate(-257.000000, -272.000000)">
            <g id="Stacked-Group" transform="translate(257.000000, 272.000000)">
                <g id="PH">
                    <g id="Group" transform="translate(3.000000, 7.000000)">
                        <g id="Page-1">
                            <polygon id="Fill-1" fill="#0038A8" points="0 18 26 18 26 0 0 0"></polygon>
                            <polygon id="Fill-2" fill="#CE1126" points="0 18 26 18 26 9 0 9"></polygon>
                            <polygon id="Fill-3" fill="#FFFFFF" points="0 18 0 0 1.07480622 0 16 9.02415837 1.15363817 18"></polygon>
                            <g id="Group-60" transform="translate(0.000000, 1.000000)" fill="#FCD116">
                                <path d="M5.4264,6.0942 C6.4176,6.0942 7.22026667,6.9542 7.22026667,8.0162 C7.22026667,9.0772 6.4176,9.9382 5.4264,9.9382 C4.4352,9.9382 3.63253333,9.0772 3.63253333,8.0162 C3.63253333,6.9542 4.4352,6.0942 5.4264,6.0942" id="Fill-4"></path>
                                <polygon id="Fill-6" points="1.63968 8.0151 1.87301333 8.2651 5.42714667 8.0151 1.87301333 7.7651"></polygon>
                                <polygon id="Fill-8" points="2.03756 8.4932 2.22422667 8.6932 5.42649333 8.0152"></polygon>
                                <polygon id="Fill-10" points="2.03756 7.5381 2.22422667 7.3381 5.42276 8.0201"></polygon>
                                <polygon id="Fill-12" points="2.74754667 5.147 2.74754667 5.499 5.42621333 8.015 3.07421333 5.147"></polygon>
                                <polygon id="Fill-14" points="2.71618667 5.7861 2.71618667 6.0741 5.42285333 8.0151"></polygon>
                                <polygon id="Fill-16" points="3.346 5.1108 3.6148 5.1108 5.4264 8.0108"></polygon>
                                <polygon id="Fill-18" points="5.4264 3.958 5.19306667 4.208 5.4264 8.016 5.65973333 4.208"></polygon>
                                <polygon id="Fill-20" points="4.98110667 4.3862 4.79444 4.5862 5.43097333 8.0122"></polygon>
                                <polygon id="Fill-22" points="5.87253333 4.3862 6.0592 4.5862 5.4264 8.0162"></polygon>
                                <polygon id="Fill-24" points="8.10422667 5.147 7.77382667 5.147 5.42649333 8.016 8.10422667 5.5"></polygon>
                                <polygon id="Fill-26" points="7.50764 5.1108 7.23977333 5.1108 5.42817333 8.0108"></polygon>
                                <polygon id="Fill-28" points="8.13792 5.7861 8.13792 6.0741 5.43125333 8.0151"></polygon>
                                <polygon id="Fill-30" points="9.21209333 8.0151 8.97876 7.7651 5.42649333 8.0151 8.98062667 8.2651"></polygon>
                                <polygon id="Fill-32" points="8.81421333 7.5381 8.62754667 7.3381 5.42994667 8.0201"></polygon>
                                <polygon id="Fill-34" points="8.81421333 8.4932 8.62754667 8.6932 5.42621333 8.0152"></polygon>
                                <polygon id="Fill-36" points="8.10422667 10.8838 8.10422667 10.5318 5.42649333 8.0148 7.77382667 10.8838"></polygon>
                                <polygon id="Fill-38" points="8.13792 10.2441 8.13792 9.9561 5.42658667 8.0151"></polygon>
                                <polygon id="Fill-40" points="7.50764 10.915 7.23977333 10.915 5.42630667 8.015"></polygon>
                                <polygon id="Fill-42" points="5.4264 12.0732 5.65973333 11.8232 5.4264 8.0152 5.19306667 11.8232"></polygon>
                                <polygon id="Fill-44" points="5.87253333 11.6445 6.0592 11.4455 5.4264 8.0155"></polygon>
                                <polygon id="Fill-46" points="4.98110667 11.6445 4.79444 11.4455 5.42724 8.0155"></polygon>
                                <polygon id="Fill-48" points="2.74754667 10.8838 3.07421333 10.8838 5.42621333 8.0148 2.74754667 10.5308"></polygon>
                                <polygon id="Fill-50" points="3.346 10.915 3.6148 10.915 5.42733333 8.015"></polygon>
                                <polygon id="Fill-52" points="2.71618667 10.2441 2.71618667 9.9561 5.42285333 8.0151"></polygon>
                                <polygon id="Fill-54" points="0.267026667 1.2178 0.974493333 1.3128 1.13689333 2.0588 1.43929333 1.3658 2.15049333 1.4308 1.63062667 0.9068 1.91062667 0.2068 1.28622667 0.5758 0.745826667 0.0758 0.879293333 0.8268"></polygon>
                                <polygon id="Fill-56" points="0.267026667 14.8135 0.876493333 15.2125 0.743026667 15.9635 1.28342667 15.4635 1.90782667 15.8335 1.62782667 15.1325 2.14769333 14.6095 1.43649333 14.6735 1.13409333 13.9815 0.971693333 14.7265"></polygon>
                                <polygon id="Fill-58" points="11.7833333 7.3882 12.1912 8.0162 11.7833333 8.6442 12.4665333 8.4222 12.8968 9.0312 12.9126667 8.2672 13.5856 8.0162 12.9126667 7.7652 12.8968 7.0012 12.4665333 7.6102"></polygon>
                            </g>
                        </g>
                        <polygon id="Stroke-1" stroke="#666666" stroke-width="0.5" points="0 18 26 18 26 0 0 0"></polygon>
                    </g>
                </g>
            </g>
        </g>
    </g>
</svg>