<?xml version="1.0" encoding="UTF-8"?>
<svg width="32px" height="32px" viewBox="0 0 32 32" version="1.1" xmlns="http://www.w3.org/2000/svg" xmlns:xlink="http://www.w3.org/1999/xlink">
    <!-- Generator: Sketch 49.1 (51147) - http://www.bohemiancoding.com/sketch -->
    <title>flag_SG</title>
    <desc>Created with Sketch.</desc>
    <defs></defs>
    <g id="Page-1" stroke="none" stroke-width="1" fill="none" fill-rule="evenodd">
        <g id="Desktop-HD" transform="translate(-449.000000, -272.000000)">
            <g id="Stacked-Group" transform="translate(257.000000, 272.000000)">
                <g id="SG" transform="translate(192.000000, 0.000000)">
                    <g id="Group" transform="translate(2.000000, 6.000000)">
                        <g id="Group-17" transform="translate(0.925926, 0.981000)">
                            <polygon id="Fill-1" fill="#FFFFFF" points="0.122222222 18.069 26.1222222 18.069 26.1222222 0.069 0.122222222 0.069"></polygon>
                            <polygon id="Fill-2" fill="#EC1C24" points="0.122222222 9.017 26.1222222 9.017 26.1222222 0.068 0.122222222 0.068"></polygon>
                            <path d="M3.70232593,4.5141 C3.69654815,6.0301 4.68454815,7.3561 6.09914074,7.7321 C5.83721481,7.7951 5.56854815,7.8291 5.29988148,7.8321 L5.18914074,7.8321 C3.42402963,7.8001 2.0181037,6.2881 2.04891852,4.4561 C2.07973333,2.6231 3.53573333,1.1631 5.29988148,1.1951 C5.56951111,1.1911 5.83817778,1.2241 6.09914074,1.2951 C4.68743704,1.6761 3.70232593,2.9991 3.70232593,4.5141 Z M5.35785185,4.2909 L4.85422222,4.6749 L5.04007407,4.0679 L4.55859259,3.6979 L5.172,3.6979 L5.35785185,3.0909 L5.53985185,3.6989 L6.15325926,3.6989 L5.65348148,4.0689 L5.83933333,4.6759 L5.35785185,4.2909 Z M7.02657037,3.0028 L6.54123704,3.3718 L6.72708889,2.7648 L6.22731111,2.3948 L6.84071852,2.3948 L7.02657037,1.7878 L7.20857037,2.3958 L7.82197778,2.3958 L7.3404963,2.7658 L7.52634815,3.3728 L7.02657037,3.0028 Z M6.01382222,6.2768 L5.51019259,6.6468 L5.69604444,6.0538 L5.21456296,5.6838 L5.82797037,5.6838 L6.01382222,5.0768 L6.19582222,5.6838 L6.80922963,5.6838 L6.30945185,6.0538 L6.4953037,6.6468 L6.01382222,6.2768 Z M8.0398963,6.2768 L7.55456296,6.6468 L7.74041481,6.0538 L7.24063704,5.6838 L7.85404444,5.6838 L8.0398963,5.0768 L8.23634074,5.6838 L8.8353037,5.6838 L8.35382222,6.0538 L8.53967407,6.6468 L8.0398963,6.2768 Z M8.62528148,4.2909 L8.12165185,4.6749 L8.3075037,4.0679 L7.82602222,3.6979 L8.43942963,3.6979 L8.62528148,3.0909 L8.80728148,3.6989 L9.42068889,3.6989 L8.92091111,4.0689 L9.10676296,4.6759 L8.62528148,4.2909 Z" id="Combined-Shape" fill="#FFFFFF"></path>
                        </g>
                        <polygon id="Stroke-5" stroke="#666666" stroke-width="0.5" points="1.25 19.25 27.25 19.25 27.25 1.25 1.25 1.25"></polygon>
                    </g>
                </g>
            </g>
        </g>
    </g>
</svg>