<?xml version="1.0" encoding="UTF-8"?>
<svg width="199px" height="56px" viewBox="0 0 199 56" version="1.1" xmlns="http://www.w3.org/2000/svg" xmlns:xlink="http://www.w3.org/1999/xlink">
    <!-- Generator: Sketch 49.1 (51147) - http://www.bohemiancoding.com/sketch -->
    <title>logo</title>
    <desc>Created with Sketch.</desc>
    <defs>
        <polygon id="path-1" points="17.157427 0.117358972 17.157427 19.2011015 0.0413893461 19.2011015 0.0413893461 0.117358972 17.157427 0.117358972"></polygon>
        <polygon id="path-3" points="2.6211221e-05 0.108388298 55.1005529 0.108388298 55.1005529 55.1634752 2.6211221e-05 55.1634752 2.6211221e-05 0.108388298"></polygon>
    </defs>
    <g id="Page-1" stroke="none" stroke-width="1" fill="none" fill-rule="evenodd">
        <g id="Desktop-HD" transform="translate(-257.000000, -328.000000)">
            <g id="logo" transform="translate(257.000000, 328.000000)">
                <path d="M137.122141,37.2459202 L133.381423,37.2459202 C133.197075,37.2459202 133.057845,37.0791961 133.090449,36.8976677 L135.224377,25.0502099 C135.286766,24.7040723 134.800693,24.5579684 134.661815,24.8810184 L129.42622,37.066683 C129.379516,37.1756 129.272714,37.2459202 129.154632,37.2459202 L124.534118,37.2459202 C124.379731,37.2459202 124.251428,37.1267812 124.239443,36.9727465 L123.307128,24.784967 C123.280691,24.4379482 122.780519,24.4139794 122.721126,24.7571209 L120.596715,37.0005926 C120.572218,37.1424667 120.449025,37.2459202 120.305389,37.2459202 L116.592164,37.2459202 C116.408345,37.2459202 116.269114,37.0799011 116.300837,36.8985489 L119.570639,18.4064479 C119.595842,18.2651025 119.718329,18.1621777 119.86179,18.1621777 L126.390466,18.1621777 C126.545911,18.1621777 126.675096,18.2823741 126.685494,18.4374663 L127.574278,31.3747993 C127.595779,31.6878035 128.025808,31.7563613 128.143537,31.4655635 L133.450862,18.3468784 C133.496333,18.2353177 133.604545,18.1621777 133.72527,18.1621777 L140.392119,18.1621777 C140.575939,18.1621777 140.715169,18.3281968 140.682917,18.5091965 L137.413115,37.0014738 C137.388442,37.1429954 137.265425,37.2459202 137.122141,37.2459202" id="Fill-1" fill="#FEA000"></path>
                <path d="M157.090403,26.1551361 C157.090403,23.0851918 155.541772,20.9829875 152.665341,20.9829875 C148.461108,20.9829875 146.497606,25.4912357 146.497606,29.2527503 C146.497606,32.295201 148.046589,34.4247226 150.923021,34.4247226 C155.099054,34.4247226 157.090403,29.9164744 157.090403,26.1551361 M161.681837,26.0446329 C161.681837,32.8485982 157.173589,37.6331925 150.673992,37.6331925 C145.031632,37.6331925 141.906524,34.0378733 141.906524,29.3634297 C141.906524,22.5321471 146.414772,17.7748701 152.914369,17.7748701 C158.5562,17.7748701 161.681837,21.3703655 161.681837,26.0446329" id="Fill-3" fill="#FEA000"></path>
                <path d="M167.309639,37.0008393 L164.093415,18.5083857 C164.062044,18.3275623 164.201098,18.1620719 164.384742,18.1620719 L168.475827,18.1620719 C168.624222,18.1620719 168.749882,18.2720464 168.768916,18.4190315 L170.681485,32.9268492 C170.719729,33.2171184 171.111337,33.2812701 171.240169,33.0176134 L178.417237,18.3280911 C178.467113,18.2265762 178.570214,18.1620719 178.682832,18.1620719 L182.653545,18.1620719 C182.876138,18.1620719 183.019245,18.3994687 182.914558,18.5963301 L173.105682,37.0887836 C173.054395,37.18554 172.953585,37.2459907 172.84414,37.2459907 L167.60079,37.2459907 C167.457329,37.2459907 167.334489,37.1425372 167.309639,37.0008393" id="Fill-5" fill="#FEA000"></path>
                <g id="Group-9" transform="translate(181.528369, 18.044801)">
                    <mask id="mask-2" fill="white">
                        <use xlink:href="#path-1"></use>
                    </mask>
                    <g id="Clip-8"></g>
                    <path d="M6.64208777,7.94458025 L14.8704339,7.94458025 C15.0546059,7.94458025 15.1938363,8.11112812 15.1612317,8.29265649 L14.659297,11.075504 C14.6342707,11.2159682 14.5114307,11.3187168 14.3686754,11.3187168 L5.93130727,11.3187168 C5.78714202,11.3187168 5.66430195,11.4219941 5.63980443,11.5638682 L4.96762074,15.4531576 C4.93624982,15.633981 5.07548032,15.7989427 5.2587711,15.7989427 L14.3729051,15.7989427 C14.5570771,15.7989427 14.6963076,15.9656668 14.6642317,16.1468427 L14.1612395,18.95736 C14.1360371,19.0985292 14.0133732,19.2011015 13.8704417,19.2011015 L0.337413652,19.2011015 C0.153417908,19.2011015 0.0141874113,19.0350824 0.0459108156,18.8537302 L3.31588883,0.361629184 C3.34091507,0.220283794 3.4635789,0.117358972 3.60686294,0.117358972 L16.8616062,0.117358972 C17.0459544,0.117358972 17.1853612,0.284083085 17.1529328,0.465435213 L16.6508218,3.24845897 C16.6254431,3.3890994 16.5027793,3.4914955 16.3600239,3.4914955 L7.31391897,3.4914955 C7.16992996,3.4914955 7.04726613,3.5947728 7.02223989,3.73647067 L6.35093741,7.59826642 C6.31956649,7.77908982 6.4584445,7.94458025 6.64208777,7.94458025" id="Fill-7" fill="#FEA000" mask="url(#mask-2)"></path>
                </g>
                <path d="M58.1728278,37.2459202 L45.8433505,37.2459202 C45.659531,37.2459202 45.5201243,37.0799011 45.5523764,36.8985489 L48.8220019,18.4064479 C48.8470282,18.2651025 48.969692,18.1621777 49.1131523,18.1621777 L52.8270817,18.1621777 C53.0110774,18.1621777 53.1503079,18.3281968 53.1182321,18.5093727 L50.5031661,33.2477138 C50.4710902,33.429066 50.610497,33.5952613 50.7943165,33.5952613 L59.7961849,33.5952613 C60.0191299,33.5952613 60.1618852,33.8324819 60.0573743,34.0295195 L58.4338409,37.0885369 C58.3825548,37.1854695 58.2822735,37.2459202 58.1728278,37.2459202" id="Fill-10" fill="#F16622"></path>
                <path d="M93.5472082,37.2459202 L81.2177309,37.2459202 C81.0339113,37.2459202 80.8946809,37.0799011 80.9267567,36.8985489 L84.1963823,18.4064479 C84.2214085,18.2651025 84.3442486,18.1621777 84.4875326,18.1621777 L88.2014621,18.1621777 C88.3854578,18.1621777 88.5246883,18.3281968 88.4926124,18.5093727 L85.8777227,33.2477138 C85.8456468,33.429066 85.9848773,33.5952613 86.168873,33.5952613 L95.1705652,33.5952613 C95.3936865,33.5952613 95.5362656,33.8324819 95.4317546,34.0295195 L93.8083975,37.0885369 C93.7571113,37.1854695 93.6566539,37.2459202 93.5472082,37.2459202" id="Fill-12" fill="#F16622"></path>
                <path d="M111.386812,18.4070647 C111.362138,18.2655431 111.239298,18.1620895 111.095661,18.1620895 L105.852488,18.1620895 C105.743042,18.1620895 105.642408,18.2225402 105.591122,18.3192966 L95.7820691,36.8117502 C95.6775581,37.0086115 95.8203134,37.2460083 96.0430822,37.2460083 L100.015205,37.2460083 C100.127294,37.2460083 100.22969,37.1823853 100.279919,37.0819278 L100.900288,35.8346693 L100.900112,35.8344931 L104.774949,28.0434012 C104.777769,28.0365278 104.778827,28.0296544 104.781999,28.0229573 L105.359012,26.8689303 L105.751325,26.0798988 L105.753088,26.08078 L107.325863,22.935052 C107.455401,22.6761537 107.842074,22.7385431 107.882962,23.0254637 L108.613129,28.1130165 C108.638507,28.2911963 108.500334,28.4506945 108.320568,28.4506945 L105.992247,28.4506945 C105.834687,28.4506945 105.691051,28.5396963 105.620907,28.6806892 L104.341396,31.2534573 C104.20428,31.5289222 104.405019,31.8526771 104.712736,31.8526771 L108.930715,31.8526771 C109.0777,31.8526771 109.202479,31.9607129 109.223628,32.1061119 L109.924891,36.9922211 C109.945864,37.1377963 110.070467,37.2460083 110.217628,37.2460083 L114.311886,37.2460083 C114.495353,37.2460083 114.634583,37.0803417 114.603036,36.8996945 L111.386812,18.4070647 Z" id="Fill-14" fill="#F16622"></path>
                <path d="M76.0125899,18.4070647 C75.9879162,18.2655431 75.8650761,18.1620895 75.7214396,18.1620895 L70.4780896,18.1620895 C70.3686438,18.1620895 70.2680101,18.2225402 70.2169002,18.3192966 L60.4076711,36.8117502 C60.3031601,37.0086115 60.4459155,37.2460083 60.6688605,37.2460083 L64.640807,37.2460083 C64.7528963,37.2460083 64.8554687,37.1823853 64.9053449,37.0821041 L65.1836296,36.5225385 L65.1829247,36.522186 L69.4028424,28.0372328 C69.4049573,28.032298 69.4053098,28.0275395 69.4076009,28.0229573 L69.8122506,27.2140105 L70.0341382,26.7675917 L70.0350194,26.7681204 L71.9516417,22.935052 C72.0811789,22.6761537 72.4674995,22.7385431 72.5087399,23.0254637 L73.2387307,28.1130165 C73.2642857,28.2911963 73.1261126,28.4506945 72.9461704,28.4506945 L70.6169676,28.4506945 C70.4595843,28.4506945 70.3157715,28.5396963 70.2458038,28.6806892 L68.9662931,31.2534573 C68.8291775,31.5289222 69.0295637,31.8526771 69.337457,31.8526771 L73.5563172,31.8526771 C73.7033023,31.8526771 73.8280811,31.9607129 73.8490538,32.1061119 L74.5506697,36.9923973 C74.5716424,37.1377963 74.6962449,37.2460083 74.84323,37.2460083 L78.9373116,37.2460083 C79.1209548,37.2460083 79.2600091,37.0803417 79.2288144,36.8996945 L76.0125899,18.4070647 Z" id="Fill-16" fill="#F16622"></path>
                <g id="Group-20" transform="translate(0.000000, 0.068205)">
                    <mask id="mask-4" fill="white">
                        <use xlink:href="#path-3"></use>
                    </mask>
                    <g id="Clip-19"></g>
                    <path d="M42.4434828,7.77626996 C27.6526218,7.77626996 30.9060331,17.5153551 30.9060331,17.5153551 C28.9342473,16.8870554 3.74128206,8.57146996 0.161648369,7.38977316 C0.0437430496,7.35064762 -0.051250922,7.4902306 0.0308774468,7.5836384 C0.399750142,8.00379727 1.13326574,8.83354053 2.31073277,10.1400161 C2.39885333,10.2378299 2.51270511,10.3143185 2.63713135,10.3573214 L2.99772071,10.4815714 L23.8623799,17.323076 C23.984515,17.3629065 24.0877923,17.4459161 24.153354,17.5564193 L25.2931055,19.4767427 C25.3050899,19.4968341 25.2857033,19.5211554 25.263497,19.5139295 L4.89019801,12.8333331 C4.83644447,12.8158852 4.79220794,12.879332 4.83045227,12.9211012 C5.31405794,13.4505295 5.81969376,14.0012831 6.34154376,14.5663122 C6.48359411,14.7201707 6.66459376,14.8370185 6.86374624,14.902404 L26.2053296,21.2446175 C26.3209438,21.2825093 26.4187576,21.3611129 26.4807945,21.4658001 L27.6221321,23.3937019 C27.6341165,23.4139696 27.6147299,23.4381146 27.5923473,23.4308888 L9.05618596,17.3526845 C9.0126544,17.338409 8.97828738,17.3916338 9.0096583,17.4247671 C9.58490936,18.0338565 10.1670338,18.6454132 10.7500395,19.2516827 C10.8222984,19.3267615 10.9118289,19.3828061 11.0108764,19.4154107 L28.4513466,25.1344356 C28.6111973,25.1867792 28.7465505,25.2953437 28.8325562,25.4402139 L29.9407604,27.3073125 C29.9525686,27.3275802 29.9331821,27.3517253 29.9109757,27.3443232 L13.6832207,22.0230746 C13.6010923,21.9961097 13.5392317,22.0995632 13.6003874,22.1607189 C17.2149168,25.7699611 20.4410108,28.6426916 21.6590133,28.7648267 L10.0283321,54.9066742 C9.9509622,55.080448 10.1613941,55.2424136 10.3085555,55.1216884 C15.5487331,50.8229909 19.2413374,39.3727806 24.811086,36.3329735 C32.8774665,31.9306462 35.9875938,29.3480086 37.9743601,24.942509 C40.3162523,19.7495639 43.3102367,11.065282 43.7497821,10.7251366 C46.9334019,8.26163805 52.6349789,2.75463131 55.0491299,0.391590177 C55.1899466,0.253945851 55.0144104,0.0294146454 54.8487438,0.135864291 C51.4922313,2.29235082 42.909993,7.77626996 42.4434828,7.77626996" id="Fill-18" fill="#F16622" mask="url(#mask-4)"></path>
                </g>
            </g>
        </g>
    </g>
</svg>